<svg xmlns="http://www.w3.org/2000/svg" width="150" height="150" viewBox="0 0 150 150">
    <g fill="none" fill-rule="evenodd">
        <circle cx="75" cy="75" r="75" fill="#F1F1F2"/>
        <g transform="translate(22 30)">
            <path fill="#AACCB3" stroke="#AACCB3" stroke-linecap="square" stroke-linejoin="round" stroke-width="2" d="M13.96 75.831a5.995 5.995 0 0 1-8.198-2.206l-.454-.786c-1.66-2.875-.68-6.547 2.19-8.203L27.74 52.948l6.464 11.195L13.96 75.831zM99.43 64.45a5.998 5.998 0 0 1 2.197 8.19l-.684 1.184a5.996 5.996 0 0 1-8.191 2.194L72.508 64.33l6.68-11.568L99.43 64.449z"/>
            <path fill="#6CA87C" stroke="#6CA87C" stroke-linecap="square" stroke-linejoin="round" stroke-width="2" d="M27.466 87.381c-2.534 2.127-6.322 1.787-8.44-.74l-2.114-2.518a5.99 5.99 0 0 1 .737-8.441l25.957-21.78 9.817 11.7-25.957 21.78z"/>
            <path fill="#6CA87C" stroke="#6CA87C" stroke-linecap="square" stroke-linejoin="round" stroke-width="2" d="M88.418 75.683c2.535 2.127 2.858 5.916.738 8.442l-2.113 2.52a5.99 5.99 0 0 1-8.442.739L52.643 65.602l9.818-11.7 25.957 21.781z"/>
            <path fill="#175728" stroke="#175728" stroke-linecap="square" stroke-linejoin="round" stroke-width="2" d="M53.438 77.175c26.406 0 47.812-7.826 47.812-28.796S79.844 0 53.437 0C27.032 0 5.626 27.41 5.626 48.38c0 20.969 21.406 28.795 47.813 28.795z"/>
            <path fill="#3D794D" d="M51.188 26.074c7.766 0 14.062-2.302 14.062-8.47 0-6.167-6.296-14.229-14.063-14.229-7.766 0-14.062 8.062-14.062 14.23 0 6.167 6.296 8.469 14.063 8.469zM19.638 22.896c6.726-3.884 13.33-5.038 16.413.303 3.084 5.341 1.662 15.47-5.064 19.354-6.726 3.883-16.21.05-19.293-5.291-3.084-5.342 1.218-10.483 7.944-14.366zM23.013 49.896c6.726-3.884 13.33-5.038 16.413.303 3.084 5.341 1.662 15.47-5.064 19.354-6.726 3.883-16.21.05-19.293-5.291-3.084-5.342 1.218-10.483 7.944-14.366zM75.335 34.942c5.381 3.107 10.664 4.03 13.13-.242 2.468-4.273 1.33-12.377-4.05-15.484-5.381-3.106-12.968-.04-15.435 4.234-2.467 4.273.974 8.386 6.355 11.492zM84.938 41.625c7.766 0 14.062 2.302 14.062 8.47 0 6.167-6.296 14.229-14.063 14.229-7.766 0-14.062-8.062-14.062-14.23 0-6.167 6.296-8.469 14.063-8.469z"/>
            <path fill="#AACCB3" stroke="#AACCB3" stroke-linecap="square" stroke-linejoin="round" stroke-width="2" d="M71.247 46.167l6.861 14.122c3.862 7.949.55 17.522-7.398 21.384a16 16 0 0 1-6.993 1.609H42.71c-8.837 0-16-7.164-16-16a16 16 0 0 1 1.609-6.993l6.862-14.122c4.838-9.96 16.835-14.11 26.794-9.272a20.049 20.049 0 0 1 9.272 9.272z"/>
            <circle cx="42.028" cy="56.632" r="2.25" fill="#175728" stroke="#175728" stroke-linecap="square" stroke-linejoin="round" stroke-width="2"/>
            <circle cx="64.083" cy="56.632" r="2.25" fill="#175728" stroke="#175728" stroke-linecap="square" stroke-linejoin="round" stroke-width="2"/>
            <path stroke="#175728" stroke-linecap="square" stroke-width="2" d="M47.25 76.5c2.258 1.257 4.508 1.886 6.75 1.886s4.492-.629 6.75-1.886"/>
        </g>
    </g>
</svg>
